<?xml version="1.0" standalone="no"?>
<!DOCTYPE svg PUBLIC "-//W3C//DTD SVG 20010904//EN"
 "http://www.w3.org/TR/2001/REC-SVG-20010904/DTD/svg10.dtd">
<svg version="1.0" xmlns="http://www.w3.org/2000/svg"
 width="565.988846pt" height="563.000000pt" viewBox="0 0 565.988846 563.000000"
 preserveAspectRatio="xMidYMid meet">
<metadata>
Created by potrace 1.16, written by Peter Selinger 2001-2019
</metadata>
<g transform="translate(-229.011154,801.000000) scale(0.050000,-0.050000)"
fill="#000000" stroke="none">
<g>
<path d="M4853 15991 l-78 -28 -60 -56 c-33 -32 -77 -93 -97 -137 l-37 -80 0
-5280 -1 -5280 20 -70 19 -70 63 -76 62 -75 77 -40 77 -39 5342 0 5342 0 74
38 c95 49 174 133 213 226 l31 75 0 5295 -1 5296 -37 80 c-45 98 -128 178
-226 219 l-75 31 -5315 -1 -5316 -1 -77 -27z m10784 -169 l68 -48 27 -66 28
-67 0 -4490 0 -4491 -5520 0 -5520 0 0 4485 1 4485 39 86 39 85 85 39 86 39
5300 -4 5300 -5 67 -48z m-8217 -10082 l0 -840 -1232 0 -1232 0 -68 32 -67 32
-46 73 -45 73 -6 708 c-3 389 -1 720 4 735 l11 27 1340 0 1341 0 0 -840z
m2780 0 l0 -840 -1350 0 -1350 0 0 840 0 840 1350 0 1350 0 0 -840z m2780 0
l0 -840 -1350 0 -1350 0 0 840 0 840 1350 0 1350 0 0 -840z m2776 91 l-6 -748
-41 -57 -42 -56 -68 -35 -69 -35 -1235 0 -1235 0 0 827 0 826 13 14 14 13
1337 0 1337 0 -5 -749z"/>
<g>
<path d="M5970 14761 c-62 -26 -132 -100 -162 -173 l-28 -67 0 -3201 0 -3201
28 -65 c15 -35 56 -91 91 -124 l64 -60 4265 -5 4266 -5 68 45 68 46 35 69 35
70 0 3238 0 3237 -41 67 -41 66 -66 41 -67 41 -4237 -1 -4238 -2 -40 -16z
m8526 -88 c26 -14 64 -52 85 -84 l39 -59 0 -3206 0 -3206 -30 -58 c-16 -32
-50 -72 -74 -89 l-45 -31 -4226 0 -4226 0 -74 68 -75 69 0 3240 0 3240 50 54
c28 29 68 61 90 70 l40 16 4200 1 4200 1 46 -26z"/>
<g>
<path d="M6550 12280 l-12 -20 12 -20 12 -20 177 0 176 0 22 27 23 27 -14 13
c-7 7 -96 13 -198 13 l-186 0 -12 -20z"/>
</g>
<g>
<path d="M7174 12287 l-14 -13 23 -27 22 -27 162 0 163 1 28 17 27 18 -14 22
-13 22 -186 0 c-102 0 -191 -6 -198 -13z"/>
</g>
<g>
<path d="M8770 12240 l-57 -60 48 -55 c27 -30 62 -66 78 -80 l29 -25 531 0
531 0 94 75 c52 41 95 85 95 97 1 11 -20 41 -45 65 l-47 43 -600 0 -600 0 -57
-60z"/>
</g>
<g>
<path d="M10735 12245 l-53 -55 79 -87 80 -86 549 7 549 6 82 81 81 81 -43 54
-42 54 -615 0 -615 0 -52 -55z"/>
</g>
<g>
<path d="M12620 12260 c-22 -22 -40 -48 -40 -59 0 -26 59 -81 86 -81 37 1 70
27 74 60 9 57 0 79 -40 100 l-39 21 -41 -41z m97 -48 l7 -37 -25 -16 -25 -15
-27 10 -27 10 0 35 c0 44 20 64 59 56 l31 -5 7 -38z"/>
</g>
<g>
<path d="M13532 12257 l-32 -46 0 -65 0 -65 62 -119 62 -119 -32 -65 c-35 -69
-31 -89 15 -72 l29 11 24 73 24 73 -62 126 c-34 69 -62 141 -62 160 0 18 10
52 22 74 l22 41 -20 20 -19 19 -33 -46z"/>
</g>
<g>
<path d="M13732 12257 l-32 -46 0 -81 0 -81 50 -73 50 -74 0 -70 0 -70 -20
-12 c-11 -7 -20 -21 -20 -31 0 -31 44 -21 72 16 l27 35 0 80 0 80 -50 80 -49
80 0 61 0 61 24 24 24 24 -22 22 -21 21 -33 -46z"/>
</g>
<g>
<path d="M13933 12263 c-18 -19 -38 -62 -44 -94 l-12 -59 62 -115 61 -114 0
-46 c0 -25 -14 -66 -30 -89 l-30 -43 16 -10 c41 -26 104 72 104 161 l0 56 -33
60 c-18 33 -46 86 -62 117 l-30 58 32 67 32 66 -17 11 -17 10 -32 -36z"/>
</g>
<g>
<path d="M6473 12175 c-6 -36 -17 -121 -25 -190 l-13 -125 33 0 33 0 17 45 c9
25 22 98 30 162 l13 118 -23 27 c-36 43 -53 34 -65 -37z"/>
</g>
<g>
<path d="M7114 12213 c-6 -16 -17 -101 -25 -190 l-14 -163 20 0 c11 0 30 12
43 28 l23 27 17 138 17 137 -20 25 c-26 33 -48 32 -61 -2z"/>
</g>
<g>
<path d="M7564 12215 l-21 -26 -19 -139 -20 -140 28 -29 27 -29 13 13 c20 21
46 175 47 280 l1 95 -18 0 c-9 0 -27 -11 -38 -25z"/>
</g>
<g>
<path d="M12898 12210 l-53 -29 -32 -68 -33 -69 0 -63 c0 -34 13 -93 28 -130
l29 -68 46 -30 c47 -30 119 -42 222 -36 l55 3 0 35 0 35 -87 -7 -87 -7 -58 51
-58 50 0 103 0 103 59 51 58 50 87 -9 86 -10 0 37 0 38 -105 -1 -105 -1 -52
-28z"/>
</g>
<g>
<path d="M10073 12058 l-87 -88 -13 -146 c-7 -80 -36 -303 -64 -496 l-50 -350
65 -77 65 -77 65 53 64 53 11 40 c17 65 131 952 131 1020 l0 63 -50 47 -49 46
-88 -88z"/>
</g>
<g>
<path d="M10564 12094 l-44 -46 -70 -519 c-38 -286 -70 -535 -70 -554 l0 -34
57 -64 57 -64 80 78 80 79 65 504 65 504 -67 80 c-37 45 -77 81 -89 82 -11 0
-41 -21 -64 -46z"/>
</g>
<g>
<path d="M12046 12055 l-83 -85 -68 -509 -68 -509 61 -65 62 -66 74 65 75 64
72 538 72 539 -38 50 c-21 28 -46 53 -57 57 l-19 6 -83 -85z"/>
</g>
<g>
<path d="M7855 11944 c-28 -42 -74 -122 -103 -179 l-52 -104 0 -72 0 -73 68
-68 68 -68 84 0 84 0 68 68 68 68 0 73 0 72 -53 104 c-73 145 -144 255 -165
255 -9 0 -39 -34 -67 -76z m169 -165 l79 -148 -12 -61 -12 -60 -36 -36 -35
-35 -69 -11 -69 -12 -54 43 -55 43 -12 66 -13 67 34 68 c19 37 58 105 87 152
l53 85 18 -6 c9 -3 53 -73 96 -155z"/>
</g>
<g>
<path d="M6513 11867 c-7 -8 -13 -26 -13 -40 l0 -27 187 0 c102 0 192 6 199
13 l14 13 -23 27 -22 27 -164 0 c-90 0 -170 -6 -178 -13z"/>
</g>
<g>
<path d="M7141 11851 l-26 -31 29 -11 c16 -6 105 -8 198 -5 l168 6 0 30 0 30
-172 6 -172 5 -25 -30z"/>
</g>
<g>
<path d="M6871 11782 c-6 -9 -20 -83 -31 -163 l-21 -147 29 -28 28 -29 20 38
c11 20 26 107 34 192 l15 155 -31 0 c-18 0 -37 -8 -43 -18z"/>
</g>
<g>
<path d="M7063 11757 c-10 -26 -25 -113 -33 -194 l-15 -148 28 9 c15 5 38 31
50 57 l24 49 6 128 7 128 -25 9 -25 8 -17 -46z"/>
</g>
<g>
<path d="M7505 11775 l-21 -25 -13 -141 -14 -141 30 -25 29 -25 11 16 c17 29
54 329 42 348 -16 25 -40 22 -64 -7z"/>
</g>
<g>
<path d="M6451 11433 l-37 -27 14 -23 14 -23 174 0 174 1 29 18 28 18 -26 31
-26 32 -154 0 -153 0 -37 -27z"/>
</g>
<g>
<path d="M7140 11445 c-27 -5 -56 -19 -64 -32 l-15 -23 35 -14 c19 -7 102 -14
184 -14 l150 -1 30 20 30 20 -39 29 -39 30 -111 -3 c-61 -1 -133 -7 -161 -12z"/>
</g>
<g>
<path d="M8648 10852 l-78 -69 69 -71 69 -72 541 1 541 1 80 68 80 68 -69 71
-69 71 -543 0 -542 0 -79 -68z"/>
</g>
<g>
<path d="M12740 10889 l-26 -30 47 -50 46 -49 272 0 272 0 50 33 c27 19 53 37
57 40 5 4 -8 25 -28 47 l-36 40 -315 0 -314 0 -25 -31z"/>
</g>
<g>
<path d="M12636 10785 l-30 -35 -35 -288 -34 -288 32 -31 31 -32 48 50 47 49
34 267 34 266 -34 39 c-20 21 -41 38 -49 38 -8 0 -27 -16 -44 -35z"/>
</g>
<g>
<path d="M8456 10683 l-71 -63 -11 -75 c-6 -41 -40 -288 -75 -547 l-65 -473
38 -52 c21 -28 43 -52 48 -51 6 0 52 38 103 84 l94 84 61 464 c34 255 62 485
61 510 l0 46 -56 67 -56 68 -71 -62z"/>
</g>
<g>
<path d="M10404 10674 l-64 -66 -70 -499 c-38 -274 -70 -521 -70 -548 l0 -48
43 -46 43 -46 82 73 c45 40 88 83 95 95 7 11 42 247 78 523 l66 503 -48 61
c-27 34 -58 62 -70 63 -12 1 -50 -29 -85 -65z"/>
</g>
<g>
<path d="M11858 10674 l-72 -64 -66 -503 -65 -503 40 -57 c22 -31 58 -73 79
-92 l39 -35 53 56 53 55 73 546 73 545 -56 59 c-31 33 -62 59 -68 58 -6 0 -43
-29 -83 -65z"/>
</g>
<g>
<path d="M12664 10129 l-44 -31 21 -39 20 -39 307 0 306 0 36 40 36 39 -26 31
-25 30 -293 0 -293 0 -45 -31z"/>
</g>
<g>
<path d="M13306 10015 l-41 -45 -24 -210 c-13 -115 -27 -232 -32 -260 l-8 -50
41 -50 42 -49 34 42 35 43 35 283 35 284 -24 28 c-13 16 -30 29 -38 29 -8 0
-33 -20 -55 -45z"/>
</g>
<g>
<path d="M8465 9464 c-47 -41 -85 -84 -85 -96 0 -11 21 -41 46 -65 l47 -43
599 0 600 0 64 66 64 65 -62 75 -61 74 -563 -1 -564 0 -85 -75z"/>
</g>
<g>
<path d="M10412 9457 l-94 -82 55 -58 54 -57 602 0 603 0 69 58 69 59 -79 81
-79 82 -553 0 -553 0 -94 -83z"/>
</g>
<g>
<path d="M12080 9480 l-40 -40 0 -50 0 -50 40 -40 40 -40 46 0 c26 0 63 12 84
28 l38 27 0 75 0 75 -38 27 c-21 16 -58 28 -84 28 l-46 0 -40 -40z"/>
</g>
<g>
<path d="M13518 9428 l-27 -33 -8 -134 -7 -135 32 -63 c18 -35 42 -63 53 -63
26 0 23 20 -11 80 l-29 50 0 100 -1 100 30 57 c17 32 30 61 30 65 0 20 -38 5
-62 -24z"/>
</g>
<g>
<path d="M14233 9395 l35 -65 0 -100 0 -100 -36 -67 -35 -67 26 8 c15 5 40 35
57 67 l29 59 1 100 0 100 -27 65 -28 65 -28 0 -28 0 34 -65z"/>
</g>
<g>
<path d="M12537 9381 l-47 -38 30 -31 30 -30 326 -3 326 -3 29 25 30 25 -44
47 -44 47 -294 0 -295 0 -47 -39z"/>
</g>
<g>
<path d="M13598 9322 l-23 -78 13 -67 c7 -37 20 -79 30 -95 l18 -27 20 13 21
13 -28 54 c-36 69 -36 109 0 196 l29 69 -28 0 -28 0 -24 -78z"/>
</g>
<g>
<path d="M14132 9365 c22 -46 23 -203 2 -260 l-17 -45 22 0 22 0 19 51 c11 29
20 82 20 119 0 37 -9 90 -20 119 l-19 51 -23 0 -22 0 16 -35z"/>
</g>
<g>
<path d="M13708 9312 c-6 -15 -8 -62 -4 -105 l6 -77 19 0 18 0 2 105 1 105
-16 0 c-8 0 -20 -13 -26 -28z"/>
</g>
<g>
<path d="M14031 9305 c17 -39 20 -100 7 -142 l-8 -28 24 -9 24 -9 13 70 13 69
-23 42 c-12 23 -32 42 -44 42 l-21 0 15 -35z"/>
</g>
<g>
<path d="M13845 9277 c-33 -33 -31 -67 5 -97 l30 -25 0 -127 0 -128 20 0 20 0
0 126 0 126 22 22 21 21 -6 48 -7 47 -40 6 -40 6 -25 -25z"/>
</g>
<g>
<path d="M13744 8768 c-76 -39 -129 -108 -162 -212 l-24 -73 23 -87 23 -86 43
-47 c24 -26 67 -59 97 -75 l54 -28 96 0 97 0 69 36 70 37 45 88 45 87 0 62 0
62 -45 88 -45 88 -54 39 -54 40 -106 7 -106 7 -66 -33z m-16 -214 c-7 -24 -16
-47 -19 -51 -3 -3 -28 -3 -56 0 l-50 7 28 66 28 66 41 -22 42 -22 -14 -44z
m430 23 c12 -35 22 -67 22 -71 0 -5 -25 -6 -55 -2 l-55 6 -7 48 -6 47 26 17
c15 10 33 18 40 18 7 0 23 -28 35 -63z m-310 11 l32 -12 0 -38 0 -38 -60 0
-60 0 0 37 c0 59 27 75 88 51z m172 -6 c0 -10 5 -33 12 -50 l12 -32 -72 0 -72
0 0 29 0 29 35 20 c44 26 85 28 85 4z m-294 -177 c13 -67 3 -85 -45 -85 l-37
0 -12 32 c-7 17 -12 49 -12 70 l0 38 48 0 47 0 11 -55z m150 0 l7 -45 -62 0
-61 0 0 51 0 52 55 -7 55 -6 6 -45z m153 37 c6 -10 6 -33 -1 -50 l-12 -32 -48
0 -48 0 0 50 0 50 49 0 c27 0 54 -8 60 -18z m151 -1 c0 -10 -9 -41 -20 -70
l-19 -51 -29 0 c-16 0 -36 10 -43 21 l-13 21 12 49 13 49 49 0 50 0 0 -19z"/>
</g>
</g>
<g>
<path d="M9120 7501 c-38 -7 -100 -29 -136 -48 l-66 -35 -22 -48 -22 -48 33
-50 c18 -28 53 -61 78 -74 l45 -24 -35 40 -35 39 0 50 0 50 55 52 55 52 110
30 110 29 -50 0 c-27 0 -81 -7 -120 -15z"/>
</g>
<g>
<path d="M9568 7392 c-6 -16 -8 -54 -4 -85 l6 -57 125 -6 125 -6 0 -39 0 -39
-130 0 -130 0 0 -30 0 -30 136 0 136 0 24 24 24 24 0 55 0 56 -39 20 -38 21
-92 0 -91 0 0 29 0 29 123 6 124 6 8 25 8 25 -152 0 -152 0 -11 -28z"/>
</g>
<g>
<path d="M10093 7375 c-56 -91 -133 -241 -133 -258 0 -9 11 -17 25 -17 l26 0
67 123 68 123 22 -31 c12 -17 47 -73 77 -123 l54 -92 32 0 32 0 -87 160 -86
160 -35 0 -34 0 -28 -45z"/>
</g>
<g>
<path d="M10460 7260 l0 -160 140 0 140 0 0 30 0 30 -110 0 -110 0 0 130 0
130 -30 0 -30 0 0 -160z"/>
</g>
<g>
<path d="M10820 7284 l0 -136 24 -24 24 -24 114 0 c63 0 129 5 146 12 l32 12
0 148 0 148 -30 0 -30 0 0 -131 0 -131 -105 6 -105 6 -6 125 -6 125 -29 0 -29
0 0 -136z"/>
</g>
<g>
<path d="M11308 7392 c-6 -16 -8 -54 -4 -85 l6 -57 125 -6 125 -6 0 -39 0 -39
-130 0 -130 0 0 -30 0 -30 136 0 136 0 24 24 24 24 0 55 0 56 -39 20 -38 21
-93 0 -93 0 7 33 6 33 118 2 119 2 8 25 8 25 -152 0 -152 0 -11 -28z"/>
</g>
<g>
<path d="M9327 7304 l37 -41 -15 -47 c-7 -25 -23 -58 -35 -72 -31 -39 -131
-87 -244 -117 l-100 -26 134 9 134 8 81 41 80 41 13 52 13 51 -21 47 -22 48
-46 24 -46 24 37 -42z"/>
</g>
<g>
<path d="M5674 5987 c-8 -7 -14 -26 -14 -40 l0 -27 421 0 422 0 -7 35 -7 35
-401 5 -401 6 -13 -14z"/>
</g>
<g>
<path d="M5664 5705 l7 -35 409 0 410 0 0 30 0 30 -417 5 -416 6 7 -36z"/>
</g>
<g>
<path d="M5660 5460 l0 -41 415 6 415 5 0 30 0 30 -415 5 -415 6 0 -41z"/>
</g>
<g>
<path d="M8347 5889 l-12 -32 17 -16 c23 -20 450 -328 484 -349 l25 -15 230
166 c127 91 244 180 260 198 l30 33 -28 24 -28 23 -232 -172 -232 -172 -238
171 c-130 95 -243 172 -251 172 -7 0 -19 -14 -25 -31z"/>
</g>
<g>
<path d="M11365 5758 l-245 -181 0 -29 0 -28 33 0 33 0 218 160 c119 88 223
160 229 160 7 0 109 -72 227 -160 l214 -160 35 0 34 0 -7 33 -6 34 -240 176
c-132 97 -249 176 -260 177 -11 0 -130 -82 -265 -182z"/>
</g>
<g>
<path d="M14732 6097 l-137 -82 -155 -153 c-84 -83 -174 -178 -198 -211 l-43
-58 -85 83 -86 84 -30 0 c-16 0 -40 -10 -52 -22 l-22 -22 132 -158 132 -159
21 7 c11 4 70 78 131 165 l109 159 156 163 c86 90 188 184 226 210 65 44 88
77 54 77 -8 0 -77 -37 -153 -83z"/>
</g>
<g>
<path d="M14700 5570 l0 -110 20 0 20 0 0 110 0 110 -20 0 -20 0 0 -110z"/>
</g>
<g>
<path d="M14585 5575 c-10 -14 -24 -46 -31 -71 l-11 -47 21 -59 20 -59 37 -19
c20 -11 68 -20 108 -20 l71 0 39 39 c22 22 46 62 52 89 l13 49 -27 56 -27 57
-38 7 -37 7 33 -47 32 -46 0 -52 0 -53 -37 -33 -36 -33 -50 0 -51 0 -33 37
-33 36 0 52 0 53 20 12 c25 15 27 70 2 70 -9 0 -26 -11 -37 -25z"/>
</g>
</g>
</g>
</svg>
