<?xml version="1.0" standalone="no"?>
<!DOCTYPE svg PUBLIC "-//W3C//DTD SVG 20010904//EN"
 "http://www.w3.org/TR/2001/REC-SVG-20010904/DTD/svg10.dtd">
<svg version="1.0" xmlns="http://www.w3.org/2000/svg"
 width="1022.140291pt" height="181.897565pt" viewBox="0 0 1022.140291 181.897565"
 preserveAspectRatio="xMidYMid meet">
<metadata>
Created by potrace 1.16, written by Peter Selinger 2001-2019
</metadata>
<g transform="translate(-129.859709,509.609590) scale(0.050000,-0.050000)"
fill="#000000" stroke="none">
<g>
<path d="M4490 10188 c-542 -76 -929 -199 -1261 -400 l-156 -95 -135 -128
-135 -127 -62 -96 c-33 -52 -79 -149 -102 -214 l-42 -118 8 -200 8 -200 44
-119 43 -119 73 -111 c155 -233 380 -428 647 -561 l130 -65 -172 161 -171 161
-73 147 -73 146 -18 120 -18 120 15 120 16 120 43 115 44 114 81 122 c102 152
227 281 403 414 l137 104 213 108 c117 60 281 131 363 159 202 69 465 126 720
155 l210 25 300 -13 300 -12 183 -39 c101 -21 204 -44 230 -51 l47 -13 -37 23
c-20 13 -108 49 -195 81 l-159 58 -244 52 -245 52 -450 6 c-247 4 -477 3 -510
-2z"/>
</g>
<g>
<path d="M22606 9541 l-64 -39 -33 -64 -33 -65 9 -108 9 -108 61 -62 62 -61
108 -9 108 -9 65 33 64 33 39 64 39 64 0 86 0 86 -31 60 -31 60 -64 39 -64 39
-90 0 -90 0 -64 -39z m286 -34 l50 -33 29 -56 29 -56 0 -62 0 -62 -30 -59 -31
-58 -58 -31 -59 -30 -77 0 -76 0 -45 31 c-24 17 -58 57 -74 89 l-30 58 0 62 0
62 30 58 c16 32 50 72 74 89 l45 31 86 0 86 0 51 -33z"/>
<g>
<path d="M22648 9433 c-5 -15 -7 -84 -4 -154 l6 -126 25 -8 25 -8 0 71 0 72
28 0 28 0 41 -70 42 -70 22 0 22 0 -7 15 c-4 8 -19 39 -34 69 l-27 54 32 32
c41 41 42 78 2 119 l-32 31 -79 0 -79 0 -11 -27z"/>
</g>
</g>
<g>
<path d="M7690 9527 c-80 -18 -161 -54 -225 -101 l-65 -48 -45 -84 -45 -84 -6
-322 -7 -321 22 -85 23 -84 74 -82 74 -82 90 -42 90 -42 805 -6 805 -6 0 -227
c0 -125 -5 -242 -12 -259 l-12 -32 -999 0 -998 0 5 -225 6 -225 1080 1 1080 1
90 26 90 26 93 93 93 93 24 90 25 90 -3 309 -3 309 -19 74 -20 73 -45 57 c-67
86 -115 123 -215 161 l-90 35 -795 7 -795 7 0 229 0 229 25 1 c14 0 446 0 960
-1 l935 -1 0 230 0 231 -1025 -2 c-564 -2 -1043 -7 -1065 -11z"/>
</g>
<g>
<path d="M11172 9095 c-131 -245 -413 -772 -627 -1173 l-389 -727 27 -18 27
-17 290 5 290 5 96 180 c158 298 499 958 683 1325 95 190 180 345 187 345 8
-1 62 -97 120 -215 191 -387 828 -1605 844 -1615 9 -6 156 -15 327 -20 l311
-10 12 20 13 20 -105 195 c-57 107 -226 420 -375 695 -149 275 -384 712 -524
970 l-254 470 -357 5 -358 6 -238 -446z"/>
</g>
<g>
<path d="M13820 8360 l0 -1180 1015 -2 c558 -1 1056 -4 1105 -5 l90 -3 6 235
5 235 -815 5 -816 5 -5 945 -5 945 -290 0 -290 0 0 -1180z"/>
</g>
<g>
<path d="M16440 8557 l0 -982 23 -78 23 -77 66 -77 66 -77 106 -47 106 -47
790 -6 790 -5 154 18 153 19 80 41 81 41 53 69 52 69 29 94 28 94 0 967 0 967
-300 0 -300 0 0 -950 0 -950 -700 0 -700 0 0 950 0 950 -300 0 -300 0 0 -983z"/>
</g>
<g>
<path d="M20090 9521 c-89 -21 -178 -72 -246 -140 l-61 -61 -26 -75 -27 -75 0
-340 0 -340 44 -82 44 -83 66 -56 c36 -30 98 -69 136 -87 l70 -32 806 -6 805
-7 -5 -253 -6 -254 -995 -5 -995 -5 0 -232 0 -232 1095 10 1095 9 80 27 80 27
82 83 83 82 27 78 28 78 0 340 0 340 -28 70 c-16 39 -51 100 -78 137 l-50 68
-112 52 -112 53 -795 6 -795 6 0 229 0 229 35 1 c19 0 447 0 950 -1 l915 -2 0
231 0 231 -1025 -2 -1025 -2 -60 -15z"/>
</g>
<g>
<path d="M5610 9137 c33 -24 115 -99 181 -166 l122 -122 64 -129 64 -130 19
-120 19 -119 -18 -114 -18 -114 -50 -122 c-27 -67 -79 -173 -116 -234 l-67
-112 -147 -149 -147 -149 -163 -106 c-90 -58 -218 -134 -284 -167 -172 -86
-500 -197 -726 -245 l-193 -41 -360 -12 -360 -11 -204 23 -204 24 -204 49
c-112 28 -207 46 -211 42 -13 -13 255 -126 430 -181 91 -29 276 -75 410 -103
l243 -51 362 -12 361 -12 199 24 c242 30 480 84 718 162 204 68 385 155 560
270 l120 78 142 141 141 141 73 131 73 130 32 140 33 139 -12 136 -13 137 -41
122 -41 123 -86 131 c-148 227 -394 443 -641 564 l-120 59 60 -45z"/>
</g>
</g>
</svg>
